<?xml version="1.0" standalone="no"?>
<!DOCTYPE svg PUBLIC "-//W3C//DTD SVG 20010904//EN"
 "http://www.w3.org/TR/2001/REC-SVG-20010904/DTD/svg10.dtd">
<svg version="1.0" xmlns="http://www.w3.org/2000/svg"
 width="389.000000pt" height="389.000000pt" viewBox="0 0 389.000000 389.000000"
 preserveAspectRatio="xMidYMid meet">
<metadata>
Created by potrace 1.11, written by Peter Selinger 2001-2013
</metadata>
<g transform="translate(0.000000,389.000000) scale(0.100000,-0.100000)"
fill="#000000" stroke="none">
<path d="M2 3038 c3 -8 487 -11 1934 -10 1061 0 1935 1 1942 1 6 1 12 6 12 11
0 7 -655 10 -1946 10 -1463 0 -1945 -3 -1942 -12z"/>
<path d="M1853 2501 c-127 -43 -203 -154 -190 -277 5 -48 19 -84 80 -198 16
-29 16 -29 -31 -65 -173 -132 -236 -222 -235 -337 1 -159 119 -266 277 -251
130 12 214 57 282 150 l42 58 30 -43 c67 -99 78 -154 42 -213 -21 -34 -80 -65
-125 -65 -14 0 -25 -4 -25 -10 0 -18 32 -16 107 7 92 28 167 124 165 213 -1
61 -20 102 -86 185 -62 77 -61 74 -19 185 38 97 81 162 107 158 11 -2 26 -14
32 -27 23 -46 60 -53 97 -18 22 19 24 26 15 55 -19 71 -124 74 -192 6 -37 -37
-74 -108 -102 -197 -10 -31 -20 -57 -23 -57 -10 0 -196 269 -196 283 0 7 43
49 95 92 111 95 149 144 156 206 15 136 -138 218 -303 160z m113 -26 c69 -29
99 -158 55 -243 -19 -37 -83 -105 -128 -137 -19 -13 -22 -13 -36 8 -35 54 -66
128 -78 185 -12 56 -11 66 7 109 15 39 28 52 64 71 52 26 69 27 116 7z m-92
-648 c43 -62 99 -136 123 -165 l46 -53 -18 -40 c-21 -46 -73 -95 -122 -116
-146 -60 -284 40 -300 219 -8 89 16 146 99 231 63 65 71 70 81 54 7 -10 47
-69 91 -130z"/>
<path d="M247 2485 c-2 -5 -3 -244 -3 -530 l1 -520 363 -3 c394 -2 442 2 522
53 126 79 169 257 98 400 -23 44 -85 108 -129 131 l-29 15 36 31 c54 47 77
100 76 178 0 125 -57 202 -175 235 -52 15 -112 17 -409 19 -224 1 -349 -3
-351 -9z m744 -102 c74 -33 106 -108 86 -204 -9 -45 -59 -96 -106 -109 -32 -8
-230 -12 -538 -11 l-93 1 0 168 c0 93 2 171 4 173 3 2 139 4 303 3 278 0 301
-2 344 -21z m14 -424 c56 -16 91 -43 122 -96 51 -87 32 -224 -39 -290 -53 -49
-73 -52 -421 -53 l-327 -1 0 226 0 225 313 0 c197 0 327 -4 352 -11z"/>
<path d="M2669 2471 c-4 -19 -3 -1051 1 -1052 3 -1 24 -2 48 -3 32 -1 42 2 43
14 0 8 2 130 2 270 l2 255 330 1 c182 0 336 -2 343 -4 9 -3 12 -66 12 -268 0
-145 3 -264 8 -265 4 -1 26 -2 50 -4 l42 -2 0 532 0 531 -50 0 -50 -1 0 -216
0 -216 -344 -1 -343 -1 1 211 c0 115 -1 213 -4 216 -6 9 -90 11 -91 3z"/>
<path d="M0 850 c0 -7 655 -10 1945 -10 1290 0 1945 3 1945 10 0 7 -655 10
-1945 10 -1290 0 -1945 -3 -1945 -10z"/>
</g>
</svg>
